# xmcd
#
# Track frame offsets:
#	150
#	15403
#	23786
#	33605
#	42821
#	58011
#	71960
#	87924
#	98725
#	107207
#	122974
#	134523
#	145415
#	154682
#	166317
#
# Disc length: 2414 seconds
#
# Revision: 0
# Processed by: cddbd v1.5.1PL2 Copyright (c) Steve Scherf et al.
# Submitted via: dBpowerAMP V4.0
#
DISCID=d0096c0f
DTITLE=Willie Green - Livin' The Blues - Live
DYEAR=1900
DGENRE=Blues
TTITLE0=Hoochi Coochie Man
TTITLE1=Early One Morning
TTITLE2=I've Got My Mojo Working
TTITLE3=You're So Fine
TTITLE4=Cryin' Shame
TTITLE5=Crazy 'Bout You Baby
TTITLE6=Sad, Sad, Day
TTITLE7=Act Like You Love Me
TTITLE8=Over The Hill
TTITLE9=Wild About You Baby
TTITLE10=Shame, Shame, Shame
TTITLE11=Bright Lights, Big City
TTITLE12=Baby, What You Want Me To Do
TTITLE13=Sweet Home Chicago
TTITLE14=You Got Me Dizzy
EXTD=The man John Hammond called "The Real Deal".\nMojoManMusic Entertainment
EXTT0=
EXTT1=
EXTT2=
EXTT3=
EXTT4=
EXTT5=
EXTT6=
EXTT7=
EXTT8=
EXTT9=
EXTT10=
EXTT11=
EXTT12=
EXTT13=
EXTT14=
PLAYORDER=
